<?xml version="1.0" encoding="utf-8" standalone="no"?>
<!DOCTYPE svg PUBLIC "-//W3C//DTD SVG 1.1//EN"
  "http://www.w3.org/Graphics/SVG/1.1/DTD/svg11.dtd">
<svg xmlns:xlink="http://www.w3.org/1999/xlink" width="733.504531pt" height="444.729781pt" viewBox="0 0 733.504531 444.729781" xmlns="http://www.w3.org/2000/svg" version="1.1">
 <metadata>
  <rdf:RDF xmlns:dc="http://purl.org/dc/elements/1.1/" xmlns:cc="http://creativecommons.org/ns#" xmlns:rdf="http://www.w3.org/1999/02/22-rdf-syntax-ns#">
   <cc:Work>
    <dc:type rdf:resource="http://purl.org/dc/dcmitype/StillImage"/>
    <dc:date>2025-10-06T19:21:07.331504</dc:date>
    <dc:format>image/svg+xml</dc:format>
    <dc:creator>
     <cc:Agent>
      <dc:title>Matplotlib v3.10.0, https://matplotlib.org/</dc:title>
     </cc:Agent>
    </dc:creator>
   </cc:Work>
  </rdf:RDF>
 </metadata>
 <defs>
  <style type="text/css">*{stroke-linejoin: round; stroke-linecap: butt}</style>
 </defs>
 <g id="figure_1">
  <g id="patch_1">
   <path d="M 0 444.729781 
L 733.504531 444.729781 
L 733.504531 0 
L 0 0 
z
" style="fill: #ffffff"/>
  </g>
  <g id="axes_1">
   <g id="patch_2">
    <path d="M 65.956531 386.3055 
L 711.904531 386.3055 
L 711.904531 39.7575 
L 65.956531 39.7575 
z
" style="fill: #ffffff"/>
   </g>
   <g id="matplotlib.axis_1">
    <g id="xtick_1">
     <g id="line2d_1">
      <path d="M 95.317804 386.3055 
L 95.317804 39.7575 
" clip-path="url(#p0a2215bbb6)" style="fill: none; stroke: #cccccc; stroke-opacity: 0.4; stroke-linecap: round"/>
     </g>
     <g id="text_1">
      <!-- 0.0 -->
      <g style="fill: #262626" transform="translate(85.696413 404.999609) scale(0.121 -0.121)">
       <defs>
        <path id="DejaVuSans-30" d="M 2034 4250 
Q 1547 4250 1301 3770 
Q 1056 3291 1056 2328 
Q 1056 1369 1301 889 
Q 1547 409 2034 409 
Q 2525 409 2770 889 
Q 3016 1369 3016 2328 
Q 3016 3291 2770 3770 
Q 2525 4250 2034 4250 
z
M 2034 4750 
Q 2819 4750 3233 4129 
Q 3647 3509 3647 2328 
Q 3647 1150 3233 529 
Q 2819 -91 2034 -91 
Q 1250 -91 836 529 
Q 422 1150 422 2328 
Q 422 3509 836 4129 
Q 1250 4750 2034 4750 
z
" transform="scale(0.015625)"/>
        <path id="DejaVuSans-2e" d="M 684 794 
L 1344 794 
L 1344 0 
L 684 0 
L 684 794 
z
" transform="scale(0.015625)"/>
       </defs>
       <use xlink:href="#DejaVuSans-30"/>
       <use xlink:href="#DejaVuSans-2e" transform="translate(63.623047 0)"/>
       <use xlink:href="#DejaVuSans-30" transform="translate(95.410156 0)"/>
      </g>
     </g>
    </g>
    <g id="xtick_2">
     <g id="line2d_2">
      <path d="M 212.762895 386.3055 
L 212.762895 39.7575 
" clip-path="url(#p0a2215bbb6)" style="fill: none; stroke: #cccccc; stroke-opacity: 0.4; stroke-linecap: round"/>
     </g>
     <g id="text_2">
      <!-- 0.2 -->
      <g style="fill: #262626" transform="translate(203.141504 404.999609) scale(0.121 -0.121)">
       <defs>
        <path id="DejaVuSans-32" d="M 1228 531 
L 3431 531 
L 3431 0 
L 469 0 
L 469 531 
Q 828 903 1448 1529 
Q 2069 2156 2228 2338 
Q 2531 2678 2651 2914 
Q 2772 3150 2772 3378 
Q 2772 3750 2511 3984 
Q 2250 4219 1831 4219 
Q 1534 4219 1204 4116 
Q 875 4013 500 3803 
L 500 4441 
Q 881 4594 1212 4672 
Q 1544 4750 1819 4750 
Q 2544 4750 2975 4387 
Q 3406 4025 3406 3419 
Q 3406 3131 3298 2873 
Q 3191 2616 2906 2266 
Q 2828 2175 2409 1742 
Q 1991 1309 1228 531 
z
" transform="scale(0.015625)"/>
       </defs>
       <use xlink:href="#DejaVuSans-30"/>
       <use xlink:href="#DejaVuSans-2e" transform="translate(63.623047 0)"/>
       <use xlink:href="#DejaVuSans-32" transform="translate(95.410156 0)"/>
      </g>
     </g>
    </g>
    <g id="xtick_3">
     <g id="line2d_3">
      <path d="M 330.207986 386.3055 
L 330.207986 39.7575 
" clip-path="url(#p0a2215bbb6)" style="fill: none; stroke: #cccccc; stroke-opacity: 0.4; stroke-linecap: round"/>
     </g>
     <g id="text_3">
      <!-- 0.4 -->
      <g style="fill: #262626" transform="translate(320.586595 404.999609) scale(0.121 -0.121)">
       <defs>
        <path id="DejaVuSans-34" d="M 2419 4116 
L 825 1625 
L 2419 1625 
L 2419 4116 
z
M 2253 4666 
L 3047 4666 
L 3047 1625 
L 3713 1625 
L 3713 1100 
L 3047 1100 
L 3047 0 
L 2419 0 
L 2419 1100 
L 313 1100 
L 313 1709 
L 2253 4666 
z
" transform="scale(0.015625)"/>
       </defs>
       <use xlink:href="#DejaVuSans-30"/>
       <use xlink:href="#DejaVuSans-2e" transform="translate(63.623047 0)"/>
       <use xlink:href="#DejaVuSans-34" transform="translate(95.410156 0)"/>
      </g>
     </g>
    </g>
    <g id="xtick_4">
     <g id="line2d_4">
      <path d="M 447.653077 386.3055 
L 447.653077 39.7575 
" clip-path="url(#p0a2215bbb6)" style="fill: none; stroke: #cccccc; stroke-opacity: 0.4; stroke-linecap: round"/>
     </g>
     <g id="text_4">
      <!-- 0.6 -->
      <g style="fill: #262626" transform="translate(438.031686 404.999609) scale(0.121 -0.121)">
       <defs>
        <path id="DejaVuSans-36" d="M 2113 2584 
Q 1688 2584 1439 2293 
Q 1191 2003 1191 1497 
Q 1191 994 1439 701 
Q 1688 409 2113 409 
Q 2538 409 2786 701 
Q 3034 994 3034 1497 
Q 3034 2003 2786 2293 
Q 2538 2584 2113 2584 
z
M 3366 4563 
L 3366 3988 
Q 3128 4100 2886 4159 
Q 2644 4219 2406 4219 
Q 1781 4219 1451 3797 
Q 1122 3375 1075 2522 
Q 1259 2794 1537 2939 
Q 1816 3084 2150 3084 
Q 2853 3084 3261 2657 
Q 3669 2231 3669 1497 
Q 3669 778 3244 343 
Q 2819 -91 2113 -91 
Q 1303 -91 875 529 
Q 447 1150 447 2328 
Q 447 3434 972 4092 
Q 1497 4750 2381 4750 
Q 2619 4750 2861 4703 
Q 3103 4656 3366 4563 
z
" transform="scale(0.015625)"/>
       </defs>
       <use xlink:href="#DejaVuSans-30"/>
       <use xlink:href="#DejaVuSans-2e" transform="translate(63.623047 0)"/>
       <use xlink:href="#DejaVuSans-36" transform="translate(95.410156 0)"/>
      </g>
     </g>
    </g>
    <g id="xtick_5">
     <g id="line2d_5">
      <path d="M 565.098168 386.3055 
L 565.098168 39.7575 
" clip-path="url(#p0a2215bbb6)" style="fill: none; stroke: #cccccc; stroke-opacity: 0.4; stroke-linecap: round"/>
     </g>
     <g id="text_5">
      <!-- 0.8 -->
      <g style="fill: #262626" transform="translate(555.476777 404.999609) scale(0.121 -0.121)">
       <defs>
        <path id="DejaVuSans-38" d="M 2034 2216 
Q 1584 2216 1326 1975 
Q 1069 1734 1069 1313 
Q 1069 891 1326 650 
Q 1584 409 2034 409 
Q 2484 409 2743 651 
Q 3003 894 3003 1313 
Q 3003 1734 2745 1975 
Q 2488 2216 2034 2216 
z
M 1403 2484 
Q 997 2584 770 2862 
Q 544 3141 544 3541 
Q 544 4100 942 4425 
Q 1341 4750 2034 4750 
Q 2731 4750 3128 4425 
Q 3525 4100 3525 3541 
Q 3525 3141 3298 2862 
Q 3072 2584 2669 2484 
Q 3125 2378 3379 2068 
Q 3634 1759 3634 1313 
Q 3634 634 3220 271 
Q 2806 -91 2034 -91 
Q 1263 -91 848 271 
Q 434 634 434 1313 
Q 434 1759 690 2068 
Q 947 2378 1403 2484 
z
M 1172 3481 
Q 1172 3119 1398 2916 
Q 1625 2713 2034 2713 
Q 2441 2713 2670 2916 
Q 2900 3119 2900 3481 
Q 2900 3844 2670 4047 
Q 2441 4250 2034 4250 
Q 1625 4250 1398 4047 
Q 1172 3844 1172 3481 
z
" transform="scale(0.015625)"/>
       </defs>
       <use xlink:href="#DejaVuSans-30"/>
       <use xlink:href="#DejaVuSans-2e" transform="translate(63.623047 0)"/>
       <use xlink:href="#DejaVuSans-38" transform="translate(95.410156 0)"/>
      </g>
     </g>
    </g>
    <g id="xtick_6">
     <g id="line2d_6">
      <path d="M 682.543259 386.3055 
L 682.543259 39.7575 
" clip-path="url(#p0a2215bbb6)" style="fill: none; stroke: #cccccc; stroke-opacity: 0.4; stroke-linecap: round"/>
     </g>
     <g id="text_6">
      <!-- 1.0 -->
      <g style="fill: #262626" transform="translate(672.921868 404.999609) scale(0.121 -0.121)">
       <defs>
        <path id="DejaVuSans-31" d="M 794 531 
L 1825 531 
L 1825 4091 
L 703 3866 
L 703 4441 
L 1819 4666 
L 2450 4666 
L 2450 531 
L 3481 531 
L 3481 0 
L 794 0 
L 794 531 
z
" transform="scale(0.015625)"/>
       </defs>
       <use xlink:href="#DejaVuSans-31"/>
       <use xlink:href="#DejaVuSans-2e" transform="translate(63.623047 0)"/>
       <use xlink:href="#DejaVuSans-30" transform="translate(95.410156 0)"/>
      </g>
     </g>
    </g>
    <g id="text_7">
     <!-- Taxa de Falsos Positivos (FPR) -->
     <g style="fill: #262626" transform="translate(299.901781 420.634156) scale(0.12 -0.12)">
      <defs>
       <path id="DejaVuSans-54" d="M -19 4666 
L 3928 4666 
L 3928 4134 
L 2272 4134 
L 2272 0 
L 1638 0 
L 1638 4134 
L -19 4134 
L -19 4666 
z
" transform="scale(0.015625)"/>
       <path id="DejaVuSans-61" d="M 2194 1759 
Q 1497 1759 1228 1600 
Q 959 1441 959 1056 
Q 959 750 1161 570 
Q 1363 391 1709 391 
Q 2188 391 2477 730 
Q 2766 1069 2766 1631 
L 2766 1759 
L 2194 1759 
z
M 3341 1997 
L 3341 0 
L 2766 0 
L 2766 531 
Q 2569 213 2275 61 
Q 1981 -91 1556 -91 
Q 1019 -91 701 211 
Q 384 513 384 1019 
Q 384 1609 779 1909 
Q 1175 2209 1959 2209 
L 2766 2209 
L 2766 2266 
Q 2766 2663 2505 2880 
Q 2244 3097 1772 3097 
Q 1472 3097 1187 3025 
Q 903 2953 641 2809 
L 641 3341 
Q 956 3463 1253 3523 
Q 1550 3584 1831 3584 
Q 2591 3584 2966 3190 
Q 3341 2797 3341 1997 
z
" transform="scale(0.015625)"/>
       <path id="DejaVuSans-78" d="M 3513 3500 
L 2247 1797 
L 3578 0 
L 2900 0 
L 1881 1375 
L 863 0 
L 184 0 
L 1544 1831 
L 300 3500 
L 978 3500 
L 1906 2253 
L 2834 3500 
L 3513 3500 
z
" transform="scale(0.015625)"/>
       <path id="DejaVuSans-20" transform="scale(0.015625)"/>
       <path id="DejaVuSans-64" d="M 2906 2969 
L 2906 4863 
L 3481 4863 
L 3481 0 
L 2906 0 
L 2906 525 
Q 2725 213 2448 61 
Q 2172 -91 1784 -91 
Q 1150 -91 751 415 
Q 353 922 353 1747 
Q 353 2572 751 3078 
Q 1150 3584 1784 3584 
Q 2172 3584 2448 3432 
Q 2725 3281 2906 2969 
z
M 947 1747 
Q 947 1113 1208 752 
Q 1469 391 1925 391 
Q 2381 391 2643 752 
Q 2906 1113 2906 1747 
Q 2906 2381 2643 2742 
Q 2381 3103 1925 3103 
Q 1469 3103 1208 2742 
Q 947 2381 947 1747 
z
" transform="scale(0.015625)"/>
       <path id="DejaVuSans-65" d="M 3597 1894 
L 3597 1613 
L 953 1613 
Q 991 1019 1311 708 
Q 1631 397 2203 397 
Q 2534 397 2845 478 
Q 3156 559 3463 722 
L 3463 178 
Q 3153 47 2828 -22 
Q 2503 -91 2169 -91 
Q 1331 -91 842 396 
Q 353 884 353 1716 
Q 353 2575 817 3079 
Q 1281 3584 2069 3584 
Q 2775 3584 3186 3129 
Q 3597 2675 3597 1894 
z
M 3022 2063 
Q 3016 2534 2758 2815 
Q 2500 3097 2075 3097 
Q 1594 3097 1305 2825 
Q 1016 2553 972 2059 
L 3022 2063 
z
" transform="scale(0.015625)"/>
       <path id="DejaVuSans-46" d="M 628 4666 
L 3309 4666 
L 3309 4134 
L 1259 4134 
L 1259 2759 
L 3109 2759 
L 3109 2228 
L 1259 2228 
L 1259 0 
L 628 0 
L 628 4666 
z
" transform="scale(0.015625)"/>
       <path id="DejaVuSans-6c" d="M 603 4863 
L 1178 4863 
L 1178 0 
L 603 0 
L 603 4863 
z
" transform="scale(0.015625)"/>
       <path id="DejaVuSans-73" d="M 2834 3397 
L 2834 2853 
Q 2591 2978 2328 3040 
Q 2066 3103 1784 3103 
Q 1356 3103 1142 2972 
Q 928 2841 928 2578 
Q 928 2378 1081 2264 
Q 1234 2150 1697 2047 
L 1894 2003 
Q 2506 1872 2764 1633 
Q 3022 1394 3022 966 
Q 3022 478 2636 193 
Q 2250 -91 1575 -91 
Q 1294 -91 989 -36 
Q 684 19 347 128 
L 347 722 
Q 666 556 975 473 
Q 1284 391 1588 391 
Q 1994 391 2212 530 
Q 2431 669 2431 922 
Q 2431 1156 2273 1281 
Q 2116 1406 1581 1522 
L 1381 1569 
Q 847 1681 609 1914 
Q 372 2147 372 2553 
Q 372 3047 722 3315 
Q 1072 3584 1716 3584 
Q 2034 3584 2315 3537 
Q 2597 3491 2834 3397 
z
" transform="scale(0.015625)"/>
       <path id="DejaVuSans-6f" d="M 1959 3097 
Q 1497 3097 1228 2736 
Q 959 2375 959 1747 
Q 959 1119 1226 758 
Q 1494 397 1959 397 
Q 2419 397 2687 759 
Q 2956 1122 2956 1747 
Q 2956 2369 2687 2733 
Q 2419 3097 1959 3097 
z
M 1959 3584 
Q 2709 3584 3137 3096 
Q 3566 2609 3566 1747 
Q 3566 888 3137 398 
Q 2709 -91 1959 -91 
Q 1206 -91 779 398 
Q 353 888 353 1747 
Q 353 2609 779 3096 
Q 1206 3584 1959 3584 
z
" transform="scale(0.015625)"/>
       <path id="DejaVuSans-50" d="M 1259 4147 
L 1259 2394 
L 2053 2394 
Q 2494 2394 2734 2622 
Q 2975 2850 2975 3272 
Q 2975 3691 2734 3919 
Q 2494 4147 2053 4147 
L 1259 4147 
z
M 628 4666 
L 2053 4666 
Q 2838 4666 3239 4311 
Q 3641 3956 3641 3272 
Q 3641 2581 3239 2228 
Q 2838 1875 2053 1875 
L 1259 1875 
L 1259 0 
L 628 0 
L 628 4666 
z
" transform="scale(0.015625)"/>
       <path id="DejaVuSans-69" d="M 603 3500 
L 1178 3500 
L 1178 0 
L 603 0 
L 603 3500 
z
M 603 4863 
L 1178 4863 
L 1178 4134 
L 603 4134 
L 603 4863 
z
" transform="scale(0.015625)"/>
       <path id="DejaVuSans-74" d="M 1172 4494 
L 1172 3500 
L 2356 3500 
L 2356 3053 
L 1172 3053 
L 1172 1153 
Q 1172 725 1289 603 
Q 1406 481 1766 481 
L 2356 481 
L 2356 0 
L 1766 0 
Q 1100 0 847 248 
Q 594 497 594 1153 
L 594 3053 
L 172 3053 
L 172 3500 
L 594 3500 
L 594 4494 
L 1172 4494 
z
" transform="scale(0.015625)"/>
       <path id="DejaVuSans-76" d="M 191 3500 
L 800 3500 
L 1894 563 
L 2988 3500 
L 3597 3500 
L 2284 0 
L 1503 0 
L 191 3500 
z
" transform="scale(0.015625)"/>
       <path id="DejaVuSans-28" d="M 1984 4856 
Q 1566 4138 1362 3434 
Q 1159 2731 1159 2009 
Q 1159 1288 1364 580 
Q 1569 -128 1984 -844 
L 1484 -844 
Q 1016 -109 783 600 
Q 550 1309 550 2009 
Q 550 2706 781 3412 
Q 1013 4119 1484 4856 
L 1984 4856 
z
" transform="scale(0.015625)"/>
       <path id="DejaVuSans-52" d="M 2841 2188 
Q 3044 2119 3236 1894 
Q 3428 1669 3622 1275 
L 4263 0 
L 3584 0 
L 2988 1197 
Q 2756 1666 2539 1819 
Q 2322 1972 1947 1972 
L 1259 1972 
L 1259 0 
L 628 0 
L 628 4666 
L 2053 4666 
Q 2853 4666 3247 4331 
Q 3641 3997 3641 3322 
Q 3641 2881 3436 2590 
Q 3231 2300 2841 2188 
z
M 1259 4147 
L 1259 2491 
L 2053 2491 
Q 2509 2491 2742 2702 
Q 2975 2913 2975 3322 
Q 2975 3731 2742 3939 
Q 2509 4147 2053 4147 
L 1259 4147 
z
" transform="scale(0.015625)"/>
       <path id="DejaVuSans-29" d="M 513 4856 
L 1013 4856 
Q 1481 4119 1714 3412 
Q 1947 2706 1947 2009 
Q 1947 1309 1714 600 
Q 1481 -109 1013 -844 
L 513 -844 
Q 928 -128 1133 580 
Q 1338 1288 1338 2009 
Q 1338 2731 1133 3434 
Q 928 4138 513 4856 
z
" transform="scale(0.015625)"/>
      </defs>
      <use xlink:href="#DejaVuSans-54"/>
      <use xlink:href="#DejaVuSans-61" transform="translate(44.583984 0)"/>
      <use xlink:href="#DejaVuSans-78" transform="translate(105.863281 0)"/>
      <use xlink:href="#DejaVuSans-61" transform="translate(165.042969 0)"/>
      <use xlink:href="#DejaVuSans-20" transform="translate(226.322266 0)"/>
      <use xlink:href="#DejaVuSans-64" transform="translate(258.109375 0)"/>
      <use xlink:href="#DejaVuSans-65" transform="translate(321.585938 0)"/>
      <use xlink:href="#DejaVuSans-20" transform="translate(383.109375 0)"/>
      <use xlink:href="#DejaVuSans-46" transform="translate(414.896484 0)"/>
      <use xlink:href="#DejaVuSans-61" transform="translate(463.291016 0)"/>
      <use xlink:href="#DejaVuSans-6c" transform="translate(524.570312 0)"/>
      <use xlink:href="#DejaVuSans-73" transform="translate(552.353516 0)"/>
      <use xlink:href="#DejaVuSans-6f" transform="translate(604.453125 0)"/>
      <use xlink:href="#DejaVuSans-73" transform="translate(665.634766 0)"/>
      <use xlink:href="#DejaVuSans-20" transform="translate(717.734375 0)"/>
      <use xlink:href="#DejaVuSans-50" transform="translate(749.521484 0)"/>
      <use xlink:href="#DejaVuSans-6f" transform="translate(806.199219 0)"/>
      <use xlink:href="#DejaVuSans-73" transform="translate(867.380859 0)"/>
      <use xlink:href="#DejaVuSans-69" transform="translate(919.480469 0)"/>
      <use xlink:href="#DejaVuSans-74" transform="translate(947.263672 0)"/>
      <use xlink:href="#DejaVuSans-69" transform="translate(986.472656 0)"/>
      <use xlink:href="#DejaVuSans-76" transform="translate(1014.255859 0)"/>
      <use xlink:href="#DejaVuSans-6f" transform="translate(1073.435547 0)"/>
      <use xlink:href="#DejaVuSans-73" transform="translate(1134.617188 0)"/>
      <use xlink:href="#DejaVuSans-20" transform="translate(1186.716797 0)"/>
      <use xlink:href="#DejaVuSans-28" transform="translate(1218.503906 0)"/>
      <use xlink:href="#DejaVuSans-46" transform="translate(1257.517578 0)"/>
      <use xlink:href="#DejaVuSans-50" transform="translate(1315.037109 0)"/>
      <use xlink:href="#DejaVuSans-52" transform="translate(1375.339844 0)"/>
      <use xlink:href="#DejaVuSans-29" transform="translate(1444.822266 0)"/>
     </g>
    </g>
   </g>
   <g id="matplotlib.axis_2">
    <g id="ytick_1">
     <g id="line2d_7">
      <path d="M 65.956531 370.553318 
L 711.904531 370.553318 
" clip-path="url(#p0a2215bbb6)" style="fill: none; stroke: #cccccc; stroke-opacity: 0.4; stroke-linecap: round"/>
     </g>
     <g id="text_8">
      <!-- 0.0 -->
      <g style="fill: #262626" transform="translate(37.21375 375.150373) scale(0.121 -0.121)">
       <use xlink:href="#DejaVuSans-30"/>
       <use xlink:href="#DejaVuSans-2e" transform="translate(63.623047 0)"/>
       <use xlink:href="#DejaVuSans-30" transform="translate(95.410156 0)"/>
      </g>
     </g>
    </g>
    <g id="ytick_2">
     <g id="line2d_8">
      <path d="M 65.956531 307.544591 
L 711.904531 307.544591 
" clip-path="url(#p0a2215bbb6)" style="fill: none; stroke: #cccccc; stroke-opacity: 0.4; stroke-linecap: round"/>
     </g>
     <g id="text_9">
      <!-- 0.2 -->
      <g style="fill: #262626" transform="translate(37.21375 312.141646) scale(0.121 -0.121)">
       <use xlink:href="#DejaVuSans-30"/>
       <use xlink:href="#DejaVuSans-2e" transform="translate(63.623047 0)"/>
       <use xlink:href="#DejaVuSans-32" transform="translate(95.410156 0)"/>
      </g>
     </g>
    </g>
    <g id="ytick_3">
     <g id="line2d_9">
      <path d="M 65.956531 244.535864 
L 711.904531 244.535864 
" clip-path="url(#p0a2215bbb6)" style="fill: none; stroke: #cccccc; stroke-opacity: 0.4; stroke-linecap: round"/>
     </g>
     <g id="text_10">
      <!-- 0.4 -->
      <g style="fill: #262626" transform="translate(37.21375 249.132918) scale(0.121 -0.121)">
       <use xlink:href="#DejaVuSans-30"/>
       <use xlink:href="#DejaVuSans-2e" transform="translate(63.623047 0)"/>
       <use xlink:href="#DejaVuSans-34" transform="translate(95.410156 0)"/>
      </g>
     </g>
    </g>
    <g id="ytick_4">
     <g id="line2d_10">
      <path d="M 65.956531 181.527136 
L 711.904531 181.527136 
" clip-path="url(#p0a2215bbb6)" style="fill: none; stroke: #cccccc; stroke-opacity: 0.4; stroke-linecap: round"/>
     </g>
     <g id="text_11">
      <!-- 0.6 -->
      <g style="fill: #262626" transform="translate(37.21375 186.124191) scale(0.121 -0.121)">
       <use xlink:href="#DejaVuSans-30"/>
       <use xlink:href="#DejaVuSans-2e" transform="translate(63.623047 0)"/>
       <use xlink:href="#DejaVuSans-36" transform="translate(95.410156 0)"/>
      </g>
     </g>
    </g>
    <g id="ytick_5">
     <g id="line2d_11">
      <path d="M 65.956531 118.518409 
L 711.904531 118.518409 
" clip-path="url(#p0a2215bbb6)" style="fill: none; stroke: #cccccc; stroke-opacity: 0.4; stroke-linecap: round"/>
     </g>
     <g id="text_12">
      <!-- 0.8 -->
      <g style="fill: #262626" transform="translate(37.21375 123.115464) scale(0.121 -0.121)">
       <use xlink:href="#DejaVuSans-30"/>
       <use xlink:href="#DejaVuSans-2e" transform="translate(63.623047 0)"/>
       <use xlink:href="#DejaVuSans-38" transform="translate(95.410156 0)"/>
      </g>
     </g>
    </g>
    <g id="ytick_6">
     <g id="line2d_12">
      <path d="M 65.956531 55.509682 
L 711.904531 55.509682 
" clip-path="url(#p0a2215bbb6)" style="fill: none; stroke: #cccccc; stroke-opacity: 0.4; stroke-linecap: round"/>
     </g>
     <g id="text_13">
      <!-- 1.0 -->
      <g style="fill: #262626" transform="translate(37.21375 60.106737) scale(0.121 -0.121)">
       <use xlink:href="#DejaVuSans-31"/>
       <use xlink:href="#DejaVuSans-2e" transform="translate(63.623047 0)"/>
       <use xlink:href="#DejaVuSans-30" transform="translate(95.410156 0)"/>
      </g>
     </g>
    </g>
    <g id="text_14">
     <!-- Taxa de Verdadeiros Positivos (TPR) -->
     <g style="fill: #262626" transform="translate(30.718125 319.579312) rotate(-90) scale(0.12 -0.12)">
      <defs>
       <path id="DejaVuSans-56" d="M 1831 0 
L 50 4666 
L 709 4666 
L 2188 738 
L 3669 4666 
L 4325 4666 
L 2547 0 
L 1831 0 
z
" transform="scale(0.015625)"/>
       <path id="DejaVuSans-72" d="M 2631 2963 
Q 2534 3019 2420 3045 
Q 2306 3072 2169 3072 
Q 1681 3072 1420 2755 
Q 1159 2438 1159 1844 
L 1159 0 
L 581 0 
L 581 3500 
L 1159 3500 
L 1159 2956 
Q 1341 3275 1631 3429 
Q 1922 3584 2338 3584 
Q 2397 3584 2469 3576 
Q 2541 3569 2628 3553 
L 2631 2963 
z
" transform="scale(0.015625)"/>
      </defs>
      <use xlink:href="#DejaVuSans-54"/>
      <use xlink:href="#DejaVuSans-61" transform="translate(44.583984 0)"/>
      <use xlink:href="#DejaVuSans-78" transform="translate(105.863281 0)"/>
      <use xlink:href="#DejaVuSans-61" transform="translate(165.042969 0)"/>
      <use xlink:href="#DejaVuSans-20" transform="translate(226.322266 0)"/>
      <use xlink:href="#DejaVuSans-64" transform="translate(258.109375 0)"/>
      <use xlink:href="#DejaVuSans-65" transform="translate(321.585938 0)"/>
      <use xlink:href="#DejaVuSans-20" transform="translate(383.109375 0)"/>
      <use xlink:href="#DejaVuSans-56" transform="translate(414.896484 0)"/>
      <use xlink:href="#DejaVuSans-65" transform="translate(475.554688 0)"/>
      <use xlink:href="#DejaVuSans-72" transform="translate(537.078125 0)"/>
      <use xlink:href="#DejaVuSans-64" transform="translate(576.441406 0)"/>
      <use xlink:href="#DejaVuSans-61" transform="translate(639.917969 0)"/>
      <use xlink:href="#DejaVuSans-64" transform="translate(701.197266 0)"/>
      <use xlink:href="#DejaVuSans-65" transform="translate(764.673828 0)"/>
      <use xlink:href="#DejaVuSans-69" transform="translate(826.197266 0)"/>
      <use xlink:href="#DejaVuSans-72" transform="translate(853.980469 0)"/>
      <use xlink:href="#DejaVuSans-6f" transform="translate(892.84375 0)"/>
      <use xlink:href="#DejaVuSans-73" transform="translate(954.025391 0)"/>
      <use xlink:href="#DejaVuSans-20" transform="translate(1006.125 0)"/>
      <use xlink:href="#DejaVuSans-50" transform="translate(1037.912109 0)"/>
      <use xlink:href="#DejaVuSans-6f" transform="translate(1094.589844 0)"/>
      <use xlink:href="#DejaVuSans-73" transform="translate(1155.771484 0)"/>
      <use xlink:href="#DejaVuSans-69" transform="translate(1207.871094 0)"/>
      <use xlink:href="#DejaVuSans-74" transform="translate(1235.654297 0)"/>
      <use xlink:href="#DejaVuSans-69" transform="translate(1274.863281 0)"/>
      <use xlink:href="#DejaVuSans-76" transform="translate(1302.646484 0)"/>
      <use xlink:href="#DejaVuSans-6f" transform="translate(1361.826172 0)"/>
      <use xlink:href="#DejaVuSans-73" transform="translate(1423.007812 0)"/>
      <use xlink:href="#DejaVuSans-20" transform="translate(1475.107422 0)"/>
      <use xlink:href="#DejaVuSans-28" transform="translate(1506.894531 0)"/>
      <use xlink:href="#DejaVuSans-54" transform="translate(1545.908203 0)"/>
      <use xlink:href="#DejaVuSans-50" transform="translate(1606.992188 0)"/>
      <use xlink:href="#DejaVuSans-52" transform="translate(1667.294922 0)"/>
      <use xlink:href="#DejaVuSans-29" transform="translate(1736.777344 0)"/>
     </g>
    </g>
   </g>
   <g id="line2d_13">
    <path d="M 95.317804 370.553318 
L 120.685513 256.943736 
L 123.982642 247.250086 
L 129.096557 235.229959 
L 132.124533 229.026023 
L 190.059805 176.486438 
L 192.145744 174.741581 
L 203.113745 168.537645 
L 331.903652 104.753426 
L 335.200782 102.814696 
L 336.681125 102.233077 
L 347.649127 98.743362 
L 355.589152 94.672029 
L 380.687708 84.784506 
L 463.721535 65.784951 
L 480.207182 65.009459 
L 537.940588 60.744253 
L 552.474873 58.417777 
L 682.543259 55.509682 
" clip-path="url(#p0a2215bbb6)" style="fill: none; stroke: #4c72b0; stroke-width: 2; stroke-linecap: round"/>
   </g>
   <g id="line2d_14">
    <path d="M 95.317804 370.553318 
L 95.385092 369.002334 
L 95.452381 368.808461 
L 95.452381 368.420715 
L 95.654246 368.420715 
L 95.721534 367.645223 
L 95.788822 367.645223 
L 96.192553 365.124874 
L 96.192553 363.380017 
L 96.461706 362.798398 
L 96.663571 360.278049 
L 96.730859 359.69643 
L 96.798148 359.69643 
L 96.865436 357.951573 
L 97.000013 357.951573 
L 97.201878 356.594462 
L 97.269166 356.594462 
L 97.336455 355.81897 
L 97.471031 355.81897 
L 97.53832 354.461859 
L 97.740185 354.267986 
L 97.740185 353.88024 
L 98.009338 353.298621 
L 98.009338 353.104748 
L 98.143915 352.329256 
L 98.211203 349.033414 
L 98.413068 348.257922 
L 98.614933 346.513065 
L 98.682222 346.513065 
L 98.816798 346.125319 
L 98.816798 344.380462 
L 99.018663 344.380462 
L 99.018663 343.217224 
L 99.758835 336.819415 
L 99.826124 336.819415 
L 99.826124 336.625542 
L 99.893412 336.625542 
L 99.9607 336.237796 
L 100.095277 335.85005 
L 100.229854 335.85005 
L 100.229854 334.299066 
L 100.297142 334.299066 
L 100.431719 333.717447 
L 100.566295 331.97259 
L 100.566295 330.809352 
L 100.633584 330.809352 
L 100.835449 330.809352 
L 100.902737 328.289003 
L 101.104602 327.707384 
L 101.171891 326.544146 
L 101.306467 326.544146 
L 101.441044 326.1564 
L 101.508332 324.411543 
L 101.710197 324.411543 
L 101.710197 323.829923 
L 101.777486 323.829923 
L 102.113928 323.829923 
L 102.181216 323.054431 
L 102.248504 323.054431 
L 102.517658 322.278939 
L 102.652234 322.278939 
L 102.719523 321.891193 
L 103.325118 320.921828 
L 103.392406 319.370844 
L 103.66156 318.401479 
L 103.728848 318.013733 
L 104.06529 317.81986 
L 104.06529 317.432114 
L 104.199867 317.432114 
L 104.670885 316.268876 
L 104.805462 316.268876 
L 104.87275 313.9424 
L 105.411057 310.646559 
L 105.612922 310.06494 
L 105.68021 309.289448 
L 105.814787 309.289448 
L 105.814787 309.095575 
L 105.882075 309.095575 
L 105.949364 307.350718 
L 106.218517 306.575226 
L 106.353094 306.575226 
L 106.353094 305.411988 
L 106.487671 305.411988 
L 106.487671 305.024242 
L 106.622247 304.636496 
L 106.622247 302.891639 
L 106.824112 302.697766 
L 106.891401 301.728401 
L 106.958689 301.728401 
L 106.958689 301.340655 
L 107.093266 301.340655 
L 107.295131 300.759036 
L 107.362419 299.595798 
L 107.429707 299.595798 
L 107.429707 299.208052 
L 107.564284 299.208052 
L 107.631573 298.43256 
L 107.833438 298.43256 
L 107.900726 298.044814 
L 108.035303 298.044814 
L 108.102591 297.657068 
L 108.169879 297.657068 
L 108.237168 296.881576 
L 108.371744 296.881576 
L 108.439033 296.106083 
L 108.573609 295.524464 
L 108.708186 295.524464 
L 108.708186 294.942845 
L 108.775475 294.942845 
L 108.97734 294.555099 
L 109.044628 293.391861 
L 109.246493 293.391861 
L 109.313781 292.616369 
L 109.38107 292.616369 
L 109.448358 291.453131 
L 109.582935 291.065385 
L 109.717511 291.065385 
L 109.852088 290.871512 
L 109.919377 290.289893 
L 110.121242 290.289893 
L 110.18853 289.902147 
L 110.390395 289.902147 
L 110.457683 289.708274 
L 110.524972 287.963417 
L 110.99599 284.085957 
L 111.063279 283.698211 
L 111.197855 283.698211 
L 111.197855 283.504338 
L 111.265144 283.504338 
L 111.467009 283.504338 
L 111.467009 283.310465 
L 111.534297 283.310465 
L 111.601585 282.922719 
L 111.601585 282.3411 
L 111.80345 282.3411 
L 111.80345 281.565608 
L 111.938027 281.565608 
L 111.938027 281.371735 
L 112.072604 281.177862 
L 112.072604 280.790116 
L 112.274469 280.596243 
L 112.274469 280.208497 
L 112.409046 280.208497 
L 112.476334 279.626878 
L 112.745487 279.626878 
L 112.812776 278.657513 
L 112.880064 278.657513 
L 112.947352 276.912656 
L 113.014641 276.912656 
L 113.081929 276.331037 
L 113.149217 276.331037 
L 113.351083 274.58618 
L 113.552948 274.58618 
L 113.620236 273.810688 
L 113.754813 273.810688 
L 113.754813 273.422942 
L 113.889389 273.035196 
L 113.956678 272.453577 
L 114.091254 272.453577 
L 114.158543 271.678085 
L 114.225831 271.678085 
L 114.225831 271.484212 
L 114.360408 271.484212 
L 114.494985 270.902593 
L 114.629561 270.902593 
L 115.302445 268.76999 
L 115.302445 268.18837 
L 115.571598 268.18837 
L 115.571598 267.994497 
L 115.975328 267.412878 
L 116.177193 267.412878 
L 116.244482 265.861894 
L 116.379058 265.861894 
L 116.379058 265.668021 
L 116.648212 265.668021 
L 117.186519 263.729291 
L 117.926691 263.147672 
L 117.993979 262.37218 
L 118.128556 262.37218 
L 118.128556 261.984434 
L 118.195844 261.984434 
L 118.330421 261.984434 
L 118.330421 261.790561 
L 118.397709 261.790561 
L 118.532286 261.208942 
L 118.801439 261.208942 
L 118.868727 260.43345 
L 118.936016 260.43345 
L 118.936016 259.270212 
L 119.205169 258.688593 
L 119.205169 257.525355 
L 119.339746 257.525355 
L 119.339746 256.749863 
L 119.407034 256.749863 
L 119.474323 256.362117 
L 119.608899 256.362117 
L 119.608899 255.586625 
L 119.743476 255.586625 
L 119.810764 255.198879 
L 119.945341 255.198879 
L 119.945341 255.005006 
L 120.012629 255.005006 
L 120.147206 255.005006 
L 120.147206 254.811133 
L 120.214494 254.811133 
L 120.41636 254.423387 
L 120.483648 253.066276 
L 120.618225 253.066276 
L 120.618225 251.321419 
L 120.752801 251.321419 
L 120.82009 250.545927 
L 120.887378 250.545927 
L 120.887378 250.352054 
L 121.22382 249.964308 
L 121.291108 249.576562 
L 121.358396 249.576562 
L 121.425685 248.994943 
L 121.560262 248.994943 
L 121.62755 248.025578 
L 121.694838 248.025578 
L 121.694838 247.637832 
L 121.829415 247.443959 
L 121.896703 246.668467 
L 122.367722 246.668467 
L 122.367722 246.474594 
L 122.43501 246.474594 
L 122.569587 246.086848 
L 122.704164 246.086848 
L 122.771452 245.699102 
L 122.906029 245.699102 
L 122.973317 244.535864 
L 123.107894 244.535864 
L 123.377047 243.372626 
L 123.444335 243.372626 
L 123.444335 242.791007 
L 123.713489 242.791007 
L 123.780777 242.015515 
L 123.848066 242.015515 
L 123.848066 241.821642 
L 123.982642 241.821642 
L 124.049931 240.658403 
L 124.184507 240.658403 
L 124.251796 240.270657 
L 124.520949 240.270657 
L 124.588237 239.301292 
L 124.722814 239.301292 
L 124.722814 239.107419 
L 124.790102 239.107419 
L 124.991968 239.107419 
L 124.991968 238.913546 
L 125.261121 238.913546 
L 125.261121 238.719673 
L 125.395698 238.719673 
L 125.462986 238.138054 
L 125.597563 238.138054 
L 125.597563 237.944181 
L 125.732139 237.944181 
L 125.732139 237.750308 
L 125.866716 237.750308 
L 125.934004 236.974816 
L 126.203158 236.974816 
L 126.203158 236.780943 
L 126.5396 236.780943 
L 126.5396 236.393197 
L 126.606888 236.393197 
L 126.94333 235.423832 
L 127.077906 235.423832 
L 127.145195 235.036086 
L 127.616213 235.036086 
L 127.616213 234.842213 
L 127.75079 234.842213 
L 127.818078 234.454467 
L 128.087232 234.454467 
L 128.221808 234.066721 
L 128.289097 232.321864 
L 128.356385 232.321864 
L 128.356385 231.934118 
L 128.490962 231.934118 
L 128.55825 231.546372 
L 128.625539 231.546372 
L 128.625539 231.158626 
L 128.894692 231.158626 
L 128.96198 230.77088 
L 129.029269 230.77088 
L 129.096557 229.995388 
L 129.500287 229.995388 
L 129.500287 229.607642 
L 129.904017 229.607642 
L 129.904017 229.413769 
L 130.038594 229.413769 
L 130.105882 229.026023 
L 130.173171 229.026023 
L 130.173171 228.83215 
L 130.307747 228.83215 
L 130.307747 228.638277 
L 130.509612 228.638277 
L 130.509612 228.250531 
L 130.644189 228.250531 
L 130.644189 228.056658 
L 130.846054 228.056658 
L 131.115208 227.862785 
L 131.317073 227.862785 
L 131.384361 227.281166 
L 131.451649 227.087293 
L 131.451649 226.117928 
L 131.653514 225.536309 
L 131.788091 225.536309 
L 131.85538 224.95469 
L 131.989956 224.95469 
L 131.989956 224.760817 
L 132.124533 224.760817 
L 132.25911 224.373071 
L 133.133858 223.985325 
L 133.133858 223.597579 
L 133.4703 223.209833 
L 133.4703 222.434341 
L 133.604877 222.434341 
L 133.604877 222.240468 
L 133.941318 220.883357 
L 134.075895 220.883357 
L 134.075895 220.495611 
L 134.143184 220.495611 
L 134.27776 220.301738 
L 134.479625 219.720119 
L 134.546914 219.526246 
L 134.68149 219.526246 
L 134.883355 218.944627 
L 135.017932 218.944627 
L 135.421662 218.169135 
L 135.758104 217.393643 
L 136.632853 217.393643 
L 136.632853 217.19977 
L 136.834718 217.19977 
L 136.902006 216.812024 
L 137.036583 216.424278 
L 137.171159 216.424278 
L 137.171159 216.230405 
L 137.440313 215.842659 
L 137.507601 215.067167 
L 137.57489 215.067167 
L 137.642178 214.679421 
L 137.709466 214.679421 
L 137.709466 214.485548 
L 138.045908 213.903929 
L 138.180485 213.516183 
L 138.651503 213.516183 
L 138.853368 212.934563 
L 139.122522 212.74069 
L 139.391675 212.74069 
L 139.391675 212.352944 
L 139.660828 212.352944 
L 139.862694 211.965198 
L 140.131847 211.965198 
L 140.131847 211.771325 
L 140.939307 211.771325 
L 141.208461 210.80196 
L 141.612191 210.80196 
L 141.746767 210.608087 
L 142.083209 210.608087 
L 142.150497 209.832595 
L 142.352363 209.444849 
L 142.352363 208.475484 
L 142.486939 208.475484 
L 142.756093 208.281611 
L 143.092534 208.281611 
L 143.159823 207.506119 
L 143.294399 207.506119 
L 143.630841 207.118373 
L 143.832706 207.118373 
L 143.832706 206.536754 
L 143.899995 206.536754 
L 144.371013 206.149008 
L 144.371013 205.955135 
L 144.50559 205.955135 
L 144.774743 205.373516 
L 145.043897 205.373516 
L 145.447627 205.179643 
L 145.71678 204.210278 
L 146.322375 204.016405 
L 146.322375 203.628659 
L 146.389664 203.628659 
L 147.062547 203.240913 
L 147.129836 202.465421 
L 147.197124 202.465421 
L 147.600854 201.883802 
L 148.139161 201.883802 
L 148.139161 201.689929 
L 148.879333 201.689929 
L 149.081198 201.302183 
L 149.215775 201.302183 
L 149.350351 200.914437 
L 150.023235 199.557326 
L 150.090523 199.557326 
L 150.157811 199.363453 
L 150.292388 199.363453 
L 150.292388 199.16958 
L 150.359677 199.16958 
L 150.897983 198.200215 
L 150.897983 197.812469 
L 150.965272 197.812469 
L 151.099848 197.812469 
L 151.167137 197.618596 
L 151.301713 197.618596 
L 151.369002 197.036977 
L 151.907309 196.843104 
L 151.907309 196.649231 
L 151.974597 196.649231 
L 152.24375 196.455358 
L 152.24375 196.067612 
L 152.512904 195.873739 
L 152.782057 195.873739 
L 152.849346 195.485993 
L 152.916634 195.485993 
L 152.916634 195.29212 
L 152.983922 195.29212 
L 153.185787 195.098247 
L 153.522229 195.098247 
L 153.522229 194.904374 
L 153.724094 194.322755 
L 153.993248 193.935009 
L 153.993248 193.547263 
L 154.060536 193.547263 
L 154.396978 193.159517 
L 154.464266 192.965644 
L 154.464266 192.384025 
L 154.531554 192.384025 
L 154.733419 191.802406 
L 155.069861 191.802406 
L 155.204438 191.41466 
L 155.406303 191.41466 
L 155.406303 191.220787 
L 156.011898 191.220787 
L 156.079187 190.445295 
L 156.146475 190.445295 
L 156.146475 190.251422 
L 156.213763 190.251422 
L 156.684782 190.251422 
L 156.886647 190.057549 
L 156.953935 189.669803 
L 157.1558 189.669803 
L 157.761395 189.282057 
L 158.366991 189.282057 
L 158.636144 188.700438 
L 159.174451 188.700438 
L 159.241739 188.506565 
L 159.914623 188.118819 
L 159.981911 187.731073 
L 160.116488 187.731073 
L 160.183776 187.5372 
L 160.318353 187.5372 
L 160.654795 186.955581 
L 160.654795 186.373962 
L 160.722083 186.373962 
L 161.193101 186.373962 
L 161.596831 186.180089 
L 162.673445 184.822977 
L 162.673445 184.629104 
L 162.87531 184.629104 
L 164.557519 184.047485 
L 164.557519 183.853612 
L 164.624807 183.853612 
L 164.692096 183.659739 
L 164.826672 183.659739 
L 164.826672 183.465866 
L 164.893961 183.465866 
L 165.297691 183.271993 
L 165.499556 182.884247 
L 165.970574 182.884247 
L 165.970574 182.690374 
L 166.037863 182.690374 
L 166.307016 182.302628 
L 166.307016 182.108755 
L 166.508881 182.108755 
L 166.508881 181.914882 
L 166.778035 181.914882 
L 166.778035 181.527136 
L 167.047188 181.333263 
L 167.585495 181.333263 
L 167.585495 181.13939 
L 167.720072 181.13939 
L 167.720072 180.945517 
L 167.921937 180.751644 
L 167.921937 180.363898 
L 168.59482 179.976152 
L 168.662108 179.782279 
L 169.065839 179.782279 
L 169.133127 179.588406 
L 169.80601 179.588406 
L 169.80601 179.394533 
L 169.873299 179.394533 
L 170.075164 179.006787 
L 170.613471 179.006787 
L 170.680759 178.619041 
L 170.748047 178.619041 
L 170.748047 178.425168 
L 170.882624 178.425168 
L 171.017201 178.231295 
L 171.622796 178.231295 
L 171.690084 177.843549 
L 171.959238 177.843549 
L 171.959238 177.649676 
L 172.497545 177.649676 
L 172.564833 177.455803 
L 172.69941 177.455803 
L 172.901275 177.26193 
L 173.372293 177.26193 
L 173.372293 177.068057 
L 173.439582 177.068057 
L 173.641447 177.068057 
L 173.708735 176.874184 
L 174.516195 176.486438 
L 175.323655 175.3232 
L 175.592809 175.3232 
L 175.592809 175.129327 
L 175.660097 175.129327 
L 175.794674 175.129327 
L 176.602134 174.159962 
L 177.544171 174.159962 
L 177.813324 173.190597 
L 178.217055 173.190597 
L 178.217055 172.802851 
L 178.553496 172.802851 
L 178.553496 172.608978 
L 178.688073 172.608978 
L 178.688073 172.415105 
L 180.101128 172.415105 
L 180.101128 172.027359 
L 180.370282 171.833486 
L 180.639435 171.833486 
L 180.639435 171.639613 
L 180.706724 171.639613 
L 181.043165 171.44574 
L 181.043165 171.057994 
L 181.24503 171.057994 
L 181.24503 170.864121 
L 181.783337 170.864121 
L 181.783337 170.670248 
L 181.850626 170.670248 
L 181.917914 170.476375 
L 182.119779 170.476375 
L 182.187067 170.282502 
L 182.658086 170.282502 
L 183.330969 170.088629 
L 183.330969 169.894756 
L 183.465546 169.894756 
L 183.465546 169.700883 
L 183.532834 169.700883 
L 184.205718 169.313137 
L 184.205718 168.925391 
L 186.224369 168.925391 
L 186.224369 168.731518 
L 186.695387 168.343772 
L 186.762675 167.956026 
L 187.570136 167.956026 
L 187.570136 167.56828 
L 188.512173 167.56828 
L 188.579461 167.374407 
L 189.050479 167.374407 
L 189.050479 167.180534 
L 189.252344 166.986661 
L 189.723363 166.986661 
L 189.723363 166.792788 
L 189.790651 166.792788 
L 189.85794 166.598915 
L 189.85794 166.211169 
L 189.992516 166.211169 
L 190.059805 166.017296 
L 190.799977 166.017296 
L 190.867265 165.435677 
L 191.338283 165.435677 
L 191.405572 165.047931 
L 191.540148 165.047931 
L 192.28032 164.272439 
L 192.482185 164.272439 
L 192.616762 163.884693 
L 193.087781 163.884693 
L 193.155069 163.109201 
L 193.424222 163.109201 
L 193.558799 162.721455 
L 193.827952 162.721455 
L 193.895241 162.527582 
L 194.164394 162.527582 
L 194.164394 162.333709 
L 194.298971 162.333709 
L 194.366259 161.945963 
L 194.635413 161.945963 
L 194.635413 161.75209 
L 195.039143 161.75209 
L 195.039143 161.558217 
L 195.308296 161.364344 
L 196.115756 161.364344 
L 196.115756 161.170471 
L 196.317621 161.170471 
L 196.317621 160.976598 
L 196.452198 160.976598 
L 196.78864 160.394979 
L 196.990505 160.394979 
L 196.990505 160.201106 
L 198.941867 160.201106 
L 199.143732 159.81336 
L 199.278309 159.81336 
L 199.345597 159.425614 
L 199.749327 159.425614 
L 200.825941 159.231741 
L 201.229671 159.231741 
L 201.229671 159.037868 
L 201.498825 159.037868 
L 201.835266 158.843995 
L 202.306285 158.843995 
L 202.306285 158.650122 
L 203.181033 158.068503 
L 203.786629 158.068503 
L 204.324935 157.87463 
L 204.392224 157.87463 
L 204.728666 157.486883 
L 204.930531 157.486883 
L 204.930531 157.29301 
L 205.132396 157.29301 
L 206.141721 155.742026 
L 207.622065 155.160407 
L 207.689353 155.160407 
L 208.294948 154.966534 
L 208.294948 154.772661 
L 209.506139 153.997169 
L 211.121059 153.997169 
L 215.225649 152.640058 
L 216.167686 152.640058 
L 218.85922 151.670693 
L 218.85922 151.47682 
L 220.07041 150.895201 
L 220.137698 150.507455 
L 220.272275 150.507455 
L 221.2816 149.53809 
L 221.416177 149.150344 
L 222.560079 148.956471 
L 222.560079 148.762598 
L 222.627367 148.762598 
L 223.031098 148.762598 
L 223.031098 148.374852 
L 223.367539 148.374852 
L 223.367539 148.180979 
L 223.973134 148.180979 
L 223.973134 147.987106 
L 224.309576 147.793233 
L 224.309576 147.59936 
L 224.646018 147.211614 
L 226.059073 147.211614 
L 226.126362 147.017741 
L 226.59738 146.823868 
L 226.799245 146.823868 
L 226.933822 146.436122 
L 227.135687 146.242249 
L 227.673994 146.242249 
L 227.673994 146.048376 
L 227.808571 146.048376 
L 227.808571 145.854503 
L 229.087049 145.272884 
L 229.087049 145.079011 
L 230.029086 145.079011 
L 230.567393 144.303519 
L 230.903835 144.303519 
L 231.038411 144.109646 
L 231.374853 143.915773 
L 231.50943 143.915773 
L 231.50943 143.7219 
L 231.778583 143.334154 
L 232.249602 143.140281 
L 232.586044 143.140281 
L 232.922485 142.946408 
L 233.528081 142.946408 
L 234.066387 142.558662 
L 234.133676 142.170916 
L 234.671983 142.170916 
L 234.671983 141.977043 
L 235.075713 141.977043 
L 235.143001 141.78317 
L 235.143001 141.395424 
L 235.210289 141.395424 
L 235.479443 141.395424 
L 235.614019 141.201551 
L 236.152326 141.201551 
L 236.152326 141.007678 
L 236.42148 141.007678 
L 236.556056 140.619932 
L 236.82521 140.619932 
L 237.027075 140.426059 
L 237.834535 140.232186 
L 237.901823 140.232186 
L 238.305554 139.650567 
L 239.113014 139.650567 
L 239.180302 139.262821 
L 239.516744 139.262821 
L 239.987762 138.681202 
L 240.324204 138.681202 
L 242.073701 137.130218 
L 242.342855 137.130218 
L 242.94845 136.742472 
L 242.94845 136.548599 
L 243.688622 136.548599 
L 243.890487 136.160853 
L 244.361505 136.160853 
L 245.101677 135.773107 
L 245.236254 135.579234 
L 245.572696 134.803742 
L 246.312868 134.803742 
L 246.312868 134.609869 
L 246.380156 134.609869 
L 246.582021 134.609869 
L 246.649309 134.415996 
L 246.985751 134.415996 
L 246.985751 134.222123 
L 247.187616 134.222123 
L 247.187616 134.02825 
L 248.062365 134.02825 
L 248.196941 133.834377 
L 248.398807 133.834377 
L 248.398807 133.640504 
L 248.466095 133.640504 
L 248.937113 133.252758 
L 249.07169 133.252758 
L 249.07169 133.058885 
L 249.340843 132.865012 
L 249.47542 132.477266 
L 249.946439 132.283393 
L 250.417457 132.283393 
L 250.417457 132.08952 
L 250.619322 132.08952 
L 250.686611 131.895647 
L 250.955764 131.895647 
L 252.436108 131.120155 
L 253.17628 131.120155 
L 253.58001 130.732409 
L 253.98374 130.732409 
L 254.051028 130.538536 
L 254.252893 130.538536 
L 254.252893 130.344663 
L 254.38747 130.344663 
L 254.38747 130.15079 
L 254.522047 130.15079 
L 254.656623 129.956917 
L 254.858488 129.956917 
L 255.396795 129.56917 
L 255.665949 129.56917 
L 255.733237 128.987551 
L 256.944427 128.599805 
L 258.828501 128.599805 
L 258.828501 128.405932 
L 258.963078 128.405932 
L 258.963078 128.212059 
L 260.577998 128.212059 
L 260.645287 127.824313 
L 261.452747 127.824313 
L 261.452747 127.63044 
L 261.7219 127.436567 
L 261.923765 127.436567 
L 262.798514 127.048821 
L 263.134956 127.048821 
L 263.202244 126.854948 
L 264.076993 126.467202 
L 264.278858 126.467202 
L 264.413434 125.69171 
L 264.682588 125.69171 
L 264.682588 125.497837 
L 264.884453 125.497837 
L 265.086318 125.110091 
L 265.086318 124.916218 
L 265.153606 124.916218 
L 265.42276 124.916218 
L 265.961067 123.946853 
L 266.162932 123.946853 
L 266.23022 123.75298 
L 266.566662 123.75298 
L 266.566662 123.559107 
L 268.383447 123.559107 
L 268.787177 123.365234 
L 269.460061 123.365234 
L 269.527349 122.977488 
L 269.594638 122.977488 
L 269.661926 122.783615 
L 269.796503 122.783615 
L 269.796503 122.589742 
L 270.469386 122.395869 
L 270.603963 122.201996 
L 270.805828 122.201996 
L 270.873116 121.81425 
L 271.815153 121.81425 
L 271.94973 121.620377 
L 272.286172 121.426504 
L 272.75719 121.426504 
L 274.775841 121.038758 
L 274.843129 120.651012 
L 275.381436 120.263266 
L 275.852454 120.263266 
L 275.852454 120.069393 
L 276.86178 120.069393 
L 276.86178 119.87552 
L 276.996356 119.87552 
L 276.996356 119.681647 
L 277.130933 119.681647 
L 277.534663 119.100028 
L 278.005682 119.100028 
L 278.005682 118.906155 
L 278.543989 118.906155 
L 278.611277 118.518409 
L 278.678565 118.518409 
L 279.216872 117.93679 
L 281.100946 117.93679 
L 281.168234 117.742917 
L 281.370099 117.742917 
L 281.370099 117.549044 
L 281.639253 117.355171 
L 281.975695 117.355171 
L 283.186885 116.773552 
L 283.254173 116.579679 
L 284.801805 116.579679 
L 284.801805 116.385806 
L 285.205535 116.385806 
L 285.205535 116.191933 
L 285.676554 115.99806 
L 285.743842 115.610314 
L 286.012996 115.610314 
L 286.282149 115.416441 
L 286.349437 115.416441 
L 287.560628 114.834822 
L 287.829781 114.834822 
L 287.829781 114.640949 
L 288.368088 114.640949 
L 288.435376 113.865457 
L 288.70453 113.865457 
L 288.771818 113.477711 
L 289.175548 113.477711 
L 289.175548 113.283838 
L 289.91572 113.283838 
L 290.050297 113.089965 
L 290.790469 113.089965 
L 290.925045 112.896092 
L 291.059622 112.896092 
L 291.059622 112.702219 
L 291.934371 112.702219 
L 292.001659 112.314473 
L 292.068947 112.314473 
L 292.203524 112.1206 
L 292.607254 112.1206 
L 292.607254 111.926727 
L 293.010984 111.926727 
L 293.212849 111.538981 
L 293.482003 111.538981 
L 293.549291 111.345108 
L 295.837095 111.345108 
L 296.106249 111.151235 
L 297.317439 111.151235 
L 297.317439 110.957362 
L 297.586592 110.763489 
L 297.586592 110.569616 
L 297.721169 110.569616 
L 298.663206 110.375743 
L 298.663206 110.18187 
L 300.883722 110.18187 
L 300.95101 109.794124 
L 301.085587 109.794124 
L 301.085587 109.600251 
L 301.287452 109.600251 
L 301.691182 109.406378 
L 301.825759 109.018632 
L 302.1622 109.018632 
L 302.1622 108.630886 
L 302.431354 108.437013 
L 302.498642 108.24314 
L 303.507967 108.24314 
L 303.709832 108.049267 
L 304.853734 108.049267 
L 306.939673 107.661521 
L 307.006962 107.273775 
L 307.07425 107.273775 
L 307.07425 107.079902 
L 307.208827 107.079902 
L 307.276115 106.886029 
L 307.747134 106.886029 
L 307.814422 106.30441 
L 307.88171 106.30441 
L 307.948999 106.110537 
L 308.756459 106.110537 
L 308.823747 105.528918 
L 308.958324 105.528918 
L 310.304091 104.947299 
L 310.505956 104.559553 
L 312.053588 104.559553 
L 312.053588 104.36568 
L 312.120877 104.36568 
L 312.79376 104.36568 
L 312.928337 103.977934 
L 313.130202 103.977934 
L 313.130202 103.784061 
L 313.19749 103.784061 
L 313.466644 103.590188 
L 313.466644 103.396315 
L 313.60122 103.396315 
L 313.60122 103.202442 
L 313.668509 103.202442 
L 314.745122 103.202442 
L 314.745122 103.008569 
L 315.418006 103.008569 
L 315.485294 102.620823 
L 316.89835 102.620823 
L 317.369368 102.233077 
L 317.571233 102.233077 
L 317.638521 101.651457 
L 318.378693 101.651457 
L 318.445982 101.263711 
L 318.715135 101.263711 
L 318.715135 101.069838 
L 319.657172 101.069838 
L 320.195479 100.875965 
L 320.195479 100.682092 
L 320.666497 100.682092 
L 320.666497 100.100473 
L 321.070227 100.100473 
L 321.070227 99.9066 
L 321.204804 99.9066 
L 321.675823 99.324981 
L 322.819725 99.324981 
L 322.819725 99.131108 
L 322.887013 99.131108 
L 323.358031 99.131108 
L 323.627185 98.937235 
L 325.376682 98.355616 
L 327.395333 97.580124 
L 329.413983 97.580124 
L 329.413983 97.386251 
L 330.423309 97.386251 
L 330.490597 96.998505 
L 330.692462 96.998505 
L 330.75975 96.804632 
L 331.365345 96.804632 
L 331.432634 96.610759 
L 331.634499 96.610759 
L 331.634499 96.416886 
L 331.701787 96.416886 
L 331.836364 96.02914 
L 331.970941 96.02914 
L 332.038229 95.447521 
L 332.441959 94.865902 
L 333.383996 94.865902 
L 333.383996 94.672029 
L 334.05688 94.672029 
L 334.258745 93.702664 
L 334.393321 93.702664 
L 334.46061 93.508791 
L 334.86434 93.508791 
L 334.931628 93.314918 
L 337.152144 93.314918 
L 337.354009 93.121045 
L 338.094181 93.121045 
L 338.161469 92.733299 
L 339.507236 92.733299 
L 339.507236 92.539426 
L 339.77639 92.345553 
L 340.381985 92.345553 
L 340.381985 92.15168 
L 341.054868 92.15168 
L 341.324022 91.957807 
L 341.79504 91.957807 
L 341.79504 91.763934 
L 342.333347 91.763934 
L 342.535212 91.570061 
L 344.823016 91.570061 
L 344.823016 91.376188 
L 345.092169 91.376188 
L 345.092169 91.182315 
L 345.226746 91.182315 
L 345.697765 90.988442 
L 346.30336 90.988442 
L 346.30336 90.794569 
L 347.51455 90.794569 
L 347.985569 90.406823 
L 348.591164 90.406823 
L 348.927606 90.21295 
L 349.735066 90.21295 
L 349.735066 90.019077 
L 350.273373 89.631331 
L 350.407949 89.631331 
L 350.407949 89.437458 
L 350.542526 89.437458 
L 350.542526 89.243585 
L 350.744391 89.049712 
L 352.090158 89.049712 
L 352.090158 88.855839 
L 352.493888 88.855839 
L 352.493888 88.661966 
L 352.83033 88.468093 
L 353.503214 88.468093 
L 353.503214 88.27422 
L 355.118134 88.27422 
L 355.185422 87.692601 
L 355.319999 87.692601 
L 355.319999 87.498728 
L 355.791018 87.498728 
L 355.858306 87.304855 
L 356.531189 87.304855 
L 356.531189 87.110982 
L 357.473226 87.110982 
L 357.473226 86.723236 
L 357.540515 86.723236 
L 358.011533 86.723236 
L 358.011533 86.529363 
L 358.14611 86.529363 
L 358.14611 86.33549 
L 358.213398 86.33549 
L 358.886282 86.33549 
L 358.886282 86.141617 
L 358.95357 86.141617 
L 359.020858 85.947744 
L 359.491877 85.947744 
L 359.491877 85.753871 
L 363.731043 85.753871 
L 363.798331 85.366125 
L 364.202062 85.366125 
L 364.336638 84.978379 
L 365.615117 84.978379 
L 366.153424 84.39676 
L 366.691731 84.39676 
L 366.691731 84.202887 
L 366.960884 84.202887 
L 367.028172 84.009014 
L 367.230037 84.009014 
L 367.431903 83.815141 
L 368.77767 83.815141 
L 368.77767 83.621268 
L 368.912246 83.621268 
L 369.114111 83.427395 
L 369.114111 83.233522 
L 371.872934 83.233522 
L 373.353278 82.845776 
L 373.353278 82.651903 
L 374.160738 82.651903 
L 374.295315 82.45803 
L 374.631756 82.264157 
L 374.90091 82.264157 
L 374.90091 82.070284 
L 375.102775 82.070284 
L 375.102775 81.876411 
L 375.170063 81.876411 
L 376.044812 81.876411 
L 376.1121 81.488665 
L 376.313965 81.488665 
L 376.313965 81.294792 
L 377.054137 81.294792 
L 377.121425 81.100919 
L 377.996174 80.713173 
L 378.265327 80.713173 
L 378.265327 80.5193 
L 379.812959 80.5193 
L 379.812959 80.325427 
L 380.014825 80.131554 
L 380.283978 80.131554 
L 380.351266 79.937681 
L 381.697033 79.937681 
L 381.697033 79.743808 
L 382.908224 79.743808 
L 385.532469 79.549935 
L 385.532469 79.356062 
L 385.734334 79.356062 
L 386.272641 78.968316 
L 386.272641 78.58057 
L 386.33993 78.58057 
L 388.425869 78.58057 
L 388.425869 78.386697 
L 389.300617 78.192824 
L 389.367906 77.998951 
L 389.838924 77.998951 
L 389.838924 77.805078 
L 390.377231 77.805078 
L 391.050114 77.611205 
L 391.050114 77.417332 
L 393.001477 77.417332 
L 393.405207 77.223459 
L 394.145379 77.223459 
L 394.145379 77.029586 
L 395.087416 77.029586 
L 395.087416 76.835713 
L 395.154704 76.835713 
L 396.298606 76.835713 
L 396.298606 76.64184 
L 397.307931 76.060221 
L 398.048103 76.060221 
L 398.18268 75.672475 
L 398.451833 75.672475 
L 398.788275 75.478602 
L 399.528447 75.478602 
L 399.663024 75.284729 
L 399.999465 75.284729 
L 400.066754 75.090856 
L 400.470484 75.090856 
L 400.470484 74.896983 
L 401.008791 74.896983 
L 401.883539 74.509237 
L 402.287269 74.509237 
L 402.287269 74.315363 
L 403.162018 74.315363 
L 403.229306 74.12149 
L 403.49846 74.12149 
L 403.49846 73.927617 
L 404.776938 73.927617 
L 404.776938 73.733744 
L 404.844227 73.733744 
L 405.718975 73.733744 
L 405.786264 73.539871 
L 408.006779 73.539871 
L 408.006779 73.345998 
L 408.208644 73.345998 
L 409.016105 72.958252 
L 409.419835 72.958252 
L 409.688988 72.764379 
L 411.034755 72.570506 
L 411.505774 72.570506 
L 412.04408 72.376633 
L 414.062731 72.376633 
L 414.062731 72.18276 
L 414.130019 72.18276 
L 414.399173 72.18276 
L 414.399173 71.988887 
L 415.206633 71.988887 
L 415.206633 71.795014 
L 415.408498 71.795014 
L 415.408498 71.601141 
L 415.543075 71.601141 
L 415.543075 71.407268 
L 417.225284 71.407268 
L 418.100032 71.213395 
L 418.840204 71.213395 
L 418.840204 70.825649 
L 420.185971 70.825649 
L 420.185971 70.631776 
L 420.387836 70.631776 
L 420.455125 70.24403 
L 420.65699 70.24403 
L 420.65699 70.050157 
L 421.06072 70.050157 
L 421.06072 69.856284 
L 421.733603 69.856284 
L 421.935468 69.468538 
L 425.972769 69.468538 
L 425.972769 69.274665 
L 429.471764 69.274665 
L 429.471764 69.080792 
L 435.123985 69.080792 
L 435.931446 68.693046 
L 436.200599 68.693046 
L 436.267887 68.499173 
L 436.267887 68.111427 
L 437.075348 68.111427 
L 438.421115 67.723681 
L 439.363152 67.723681 
L 439.363152 67.529808 
L 439.43044 67.529808 
L 440.843495 67.529808 
L 440.843495 67.335935 
L 444.073336 67.335935 
L 444.073336 67.142062 
L 444.813508 67.142062 
L 447.437754 66.948189 
L 447.437754 66.754316 
L 449.927423 66.754316 
L 450.129288 66.560443 
L 454.032013 66.560443 
L 454.099301 66.36657 
L 454.368454 66.36657 
L 454.435743 65.978824 
L 455.579645 65.978824 
L 455.78151 65.784951 
L 456.252528 65.784951 
L 456.252528 65.591078 
L 456.319817 65.591078 
L 461.90475 65.591078 
L 462.173903 65.397205 
L 462.375768 65.397205 
L 462.375768 65.203332 
L 463.788824 65.203332 
L 463.788824 65.009459 
L 463.856112 65.009459 
L 464.057977 65.009459 
L 464.057977 64.815586 
L 464.528996 64.815586 
L 464.596284 64.621713 
L 465.134591 64.621713 
L 465.134591 64.42784 
L 466.076628 64.42784 
L 466.076628 64.233967 
L 466.143916 64.233967 
L 467.893413 64.233967 
L 468.499008 63.846221 
L 468.499008 63.652348 
L 470.181217 63.652348 
L 471.123254 63.458475 
L 472.738175 63.458475 
L 473.007328 63.264602 
L 475.698862 63.264602 
L 475.698862 63.070729 
L 475.968016 62.876856 
L 476.573611 62.876856 
L 476.573611 62.682983 
L 477.650224 62.682983 
L 477.784801 62.48911 
L 480.207182 62.48911 
L 480.6782 62.295237 
L 481.014642 62.295237 
L 481.418372 61.907491 
L 482.293121 61.907491 
L 483.235158 61.713618 
L 485.522962 61.713618 
L 485.522962 61.519745 
L 491.107895 61.519745 
L 491.107895 61.325872 
L 491.578913 61.325872 
L 492.184509 61.131999 
L 492.857392 61.131999 
L 492.991969 60.938126 
L 493.799429 60.938126 
L 493.799429 60.744253 
L 493.866717 60.744253 
L 495.212484 60.744253 
L 495.212484 60.55038 
L 503.95997 60.162634 
L 506.449639 60.162634 
L 506.449639 59.968761 
L 507.728118 59.968761 
L 507.862695 59.774888 
L 508.602867 59.774888 
L 508.670155 59.581015 
L 513.582205 59.581015 
L 513.582205 59.387142 
L 517.552218 59.387142 
L 519.705445 59.193269 
L 524.550206 59.193269 
L 524.953936 58.999396 
L 525.895973 58.999396 
L 526.165127 58.805523 
L 535.921938 58.805523 
L 536.325668 58.61165 
L 536.796686 58.61165 
L 536.796686 58.417777 
L 537.671435 58.417777 
L 538.344319 58.223904 
L 554.493523 58.223904 
L 560.75134 58.030031 
L 566.538138 58.030031 
L 566.538138 57.836158 
L 571.988495 57.836158 
L 572.257648 57.642285 
L 572.728667 57.642285 
L 572.795955 57.448412 
L 574.276299 57.448412 
L 574.410876 57.254539 
L 576.025796 57.254539 
L 576.025796 57.060666 
L 581.005134 57.060666 
L 581.274288 56.866793 
L 581.610729 56.866793 
L 581.610729 56.67292 
L 587.061086 56.67292 
L 587.061086 56.479047 
L 588.003123 56.479047 
L 589.618043 56.285174 
L 590.56008 56.285174 
L 590.56008 56.091301 
L 621.580011 56.091301 
L 622.791201 55.897428 
L 647.822468 55.897428 
L 673.392043 55.703555 
L 674.603233 55.509682 
L 682.543259 55.509682 
L 682.543259 55.509682 
" clip-path="url(#p0a2215bbb6)" style="fill: none; stroke: #dd8452; stroke-width: 2; stroke-linecap: round"/>
   </g>
   <g id="line2d_15">
    <path d="M 95.317804 370.553318 
L 682.543259 55.509682 
" clip-path="url(#p0a2215bbb6)" style="fill: none; stroke-dasharray: 5.55,2.4; stroke-dashoffset: 0; stroke: #1a1a1a; stroke-opacity: 0.7; stroke-width: 1.5"/>
   </g>
   <g id="patch_3">
    <path d="M 65.956531 386.3055 
L 65.956531 39.7575 
" style="fill: none; stroke: #cccccc; stroke-width: 1.25; stroke-linejoin: miter; stroke-linecap: square"/>
   </g>
   <g id="patch_4">
    <path d="M 711.904531 386.3055 
L 711.904531 39.7575 
" style="fill: none; stroke: #cccccc; stroke-width: 1.25; stroke-linejoin: miter; stroke-linecap: square"/>
   </g>
   <g id="patch_5">
    <path d="M 65.956531 386.3055 
L 711.904531 386.3055 
" style="fill: none; stroke: #cccccc; stroke-width: 1.25; stroke-linejoin: miter; stroke-linecap: square"/>
   </g>
   <g id="patch_6">
    <path d="M 65.956531 39.7575 
L 711.904531 39.7575 
" style="fill: none; stroke: #cccccc; stroke-width: 1.25; stroke-linejoin: miter; stroke-linecap: square"/>
   </g>
   <g id="text_15">
    <!-- Curva ROC - CART vs Random Forest -->
    <g style="fill: #262626" transform="translate(225.236781 33.7575) scale(0.16 -0.16)">
     <defs>
      <path id="DejaVuSans-Bold-43" d="M 4288 256 
Q 3956 84 3597 -3 
Q 3238 -91 2847 -91 
Q 1681 -91 1000 561 
Q 319 1213 319 2328 
Q 319 3447 1000 4098 
Q 1681 4750 2847 4750 
Q 3238 4750 3597 4662 
Q 3956 4575 4288 4403 
L 4288 3438 
Q 3953 3666 3628 3772 
Q 3303 3878 2944 3878 
Q 2300 3878 1931 3465 
Q 1563 3053 1563 2328 
Q 1563 1606 1931 1193 
Q 2300 781 2944 781 
Q 3303 781 3628 887 
Q 3953 994 4288 1222 
L 4288 256 
z
" transform="scale(0.015625)"/>
      <path id="DejaVuSans-Bold-75" d="M 500 1363 
L 500 3500 
L 1625 3500 
L 1625 3150 
Q 1625 2866 1622 2436 
Q 1619 2006 1619 1863 
Q 1619 1441 1641 1255 
Q 1663 1069 1716 984 
Q 1784 875 1895 815 
Q 2006 756 2150 756 
Q 2500 756 2700 1025 
Q 2900 1294 2900 1772 
L 2900 3500 
L 4019 3500 
L 4019 0 
L 2900 0 
L 2900 506 
Q 2647 200 2364 54 
Q 2081 -91 1741 -91 
Q 1134 -91 817 281 
Q 500 653 500 1363 
z
" transform="scale(0.015625)"/>
      <path id="DejaVuSans-Bold-72" d="M 3138 2547 
Q 2991 2616 2845 2648 
Q 2700 2681 2553 2681 
Q 2122 2681 1889 2404 
Q 1656 2128 1656 1613 
L 1656 0 
L 538 0 
L 538 3500 
L 1656 3500 
L 1656 2925 
Q 1872 3269 2151 3426 
Q 2431 3584 2822 3584 
Q 2878 3584 2943 3579 
Q 3009 3575 3134 3559 
L 3138 2547 
z
" transform="scale(0.015625)"/>
      <path id="DejaVuSans-Bold-76" d="M 97 3500 
L 1216 3500 
L 2088 1081 
L 2956 3500 
L 4078 3500 
L 2700 0 
L 1472 0 
L 97 3500 
z
" transform="scale(0.015625)"/>
      <path id="DejaVuSans-Bold-61" d="M 2106 1575 
Q 1756 1575 1579 1456 
Q 1403 1338 1403 1106 
Q 1403 894 1545 773 
Q 1688 653 1941 653 
Q 2256 653 2472 879 
Q 2688 1106 2688 1447 
L 2688 1575 
L 2106 1575 
z
M 3816 1997 
L 3816 0 
L 2688 0 
L 2688 519 
Q 2463 200 2181 54 
Q 1900 -91 1497 -91 
Q 953 -91 614 226 
Q 275 544 275 1050 
Q 275 1666 698 1953 
Q 1122 2241 2028 2241 
L 2688 2241 
L 2688 2328 
Q 2688 2594 2478 2717 
Q 2269 2841 1825 2841 
Q 1466 2841 1156 2769 
Q 847 2697 581 2553 
L 581 3406 
Q 941 3494 1303 3539 
Q 1666 3584 2028 3584 
Q 2975 3584 3395 3211 
Q 3816 2838 3816 1997 
z
" transform="scale(0.015625)"/>
      <path id="DejaVuSans-Bold-20" transform="scale(0.015625)"/>
      <path id="DejaVuSans-Bold-52" d="M 2297 2597 
Q 2675 2597 2839 2737 
Q 3003 2878 3003 3200 
Q 3003 3519 2839 3656 
Q 2675 3794 2297 3794 
L 1791 3794 
L 1791 2597 
L 2297 2597 
z
M 1791 1766 
L 1791 0 
L 588 0 
L 588 4666 
L 2425 4666 
Q 3347 4666 3776 4356 
Q 4206 4047 4206 3378 
Q 4206 2916 3982 2619 
Q 3759 2322 3309 2181 
Q 3556 2125 3751 1926 
Q 3947 1728 4147 1325 
L 4800 0 
L 3519 0 
L 2950 1159 
Q 2778 1509 2601 1637 
Q 2425 1766 2131 1766 
L 1791 1766 
z
" transform="scale(0.015625)"/>
      <path id="DejaVuSans-Bold-4f" d="M 2719 3878 
Q 2169 3878 1866 3472 
Q 1563 3066 1563 2328 
Q 1563 1594 1866 1187 
Q 2169 781 2719 781 
Q 3272 781 3575 1187 
Q 3878 1594 3878 2328 
Q 3878 3066 3575 3472 
Q 3272 3878 2719 3878 
z
M 2719 4750 
Q 3844 4750 4481 4106 
Q 5119 3463 5119 2328 
Q 5119 1197 4481 553 
Q 3844 -91 2719 -91 
Q 1597 -91 958 553 
Q 319 1197 319 2328 
Q 319 3463 958 4106 
Q 1597 4750 2719 4750 
z
" transform="scale(0.015625)"/>
      <path id="DejaVuSans-Bold-2d" d="M 347 2297 
L 2309 2297 
L 2309 1388 
L 347 1388 
L 347 2297 
z
" transform="scale(0.015625)"/>
      <path id="DejaVuSans-Bold-41" d="M 3419 850 
L 1538 850 
L 1241 0 
L 31 0 
L 1759 4666 
L 3194 4666 
L 4922 0 
L 3713 0 
L 3419 850 
z
M 1838 1716 
L 3116 1716 
L 2478 3572 
L 1838 1716 
z
" transform="scale(0.015625)"/>
      <path id="DejaVuSans-Bold-54" d="M 31 4666 
L 4331 4666 
L 4331 3756 
L 2784 3756 
L 2784 0 
L 1581 0 
L 1581 3756 
L 31 3756 
L 31 4666 
z
" transform="scale(0.015625)"/>
      <path id="DejaVuSans-Bold-73" d="M 3272 3391 
L 3272 2541 
Q 2913 2691 2578 2766 
Q 2244 2841 1947 2841 
Q 1628 2841 1473 2761 
Q 1319 2681 1319 2516 
Q 1319 2381 1436 2309 
Q 1553 2238 1856 2203 
L 2053 2175 
Q 2913 2066 3209 1816 
Q 3506 1566 3506 1031 
Q 3506 472 3093 190 
Q 2681 -91 1863 -91 
Q 1516 -91 1145 -36 
Q 775 19 384 128 
L 384 978 
Q 719 816 1070 734 
Q 1422 653 1784 653 
Q 2113 653 2278 743 
Q 2444 834 2444 1013 
Q 2444 1163 2330 1236 
Q 2216 1309 1875 1350 
L 1678 1375 
Q 931 1469 631 1722 
Q 331 1975 331 2491 
Q 331 3047 712 3315 
Q 1094 3584 1881 3584 
Q 2191 3584 2531 3537 
Q 2872 3491 3272 3391 
z
" transform="scale(0.015625)"/>
      <path id="DejaVuSans-Bold-6e" d="M 4056 2131 
L 4056 0 
L 2931 0 
L 2931 347 
L 2931 1631 
Q 2931 2084 2911 2256 
Q 2891 2428 2841 2509 
Q 2775 2619 2662 2680 
Q 2550 2741 2406 2741 
Q 2056 2741 1856 2470 
Q 1656 2200 1656 1722 
L 1656 0 
L 538 0 
L 538 3500 
L 1656 3500 
L 1656 2988 
Q 1909 3294 2193 3439 
Q 2478 3584 2822 3584 
Q 3428 3584 3742 3212 
Q 4056 2841 4056 2131 
z
" transform="scale(0.015625)"/>
      <path id="DejaVuSans-Bold-64" d="M 2919 2988 
L 2919 4863 
L 4044 4863 
L 4044 0 
L 2919 0 
L 2919 506 
Q 2688 197 2409 53 
Q 2131 -91 1766 -91 
Q 1119 -91 703 423 
Q 288 938 288 1747 
Q 288 2556 703 3070 
Q 1119 3584 1766 3584 
Q 2128 3584 2408 3439 
Q 2688 3294 2919 2988 
z
M 2181 722 
Q 2541 722 2730 984 
Q 2919 1247 2919 1747 
Q 2919 2247 2730 2509 
Q 2541 2772 2181 2772 
Q 1825 2772 1636 2509 
Q 1447 2247 1447 1747 
Q 1447 1247 1636 984 
Q 1825 722 2181 722 
z
" transform="scale(0.015625)"/>
      <path id="DejaVuSans-Bold-6f" d="M 2203 2784 
Q 1831 2784 1636 2517 
Q 1441 2250 1441 1747 
Q 1441 1244 1636 976 
Q 1831 709 2203 709 
Q 2569 709 2762 976 
Q 2956 1244 2956 1747 
Q 2956 2250 2762 2517 
Q 2569 2784 2203 2784 
z
M 2203 3584 
Q 3106 3584 3614 3096 
Q 4122 2609 4122 1747 
Q 4122 884 3614 396 
Q 3106 -91 2203 -91 
Q 1297 -91 786 396 
Q 275 884 275 1747 
Q 275 2609 786 3096 
Q 1297 3584 2203 3584 
z
" transform="scale(0.015625)"/>
      <path id="DejaVuSans-Bold-6d" d="M 3781 2919 
Q 3994 3244 4286 3414 
Q 4578 3584 4928 3584 
Q 5531 3584 5847 3212 
Q 6163 2841 6163 2131 
L 6163 0 
L 5038 0 
L 5038 1825 
Q 5041 1866 5042 1909 
Q 5044 1953 5044 2034 
Q 5044 2406 4934 2573 
Q 4825 2741 4581 2741 
Q 4263 2741 4089 2478 
Q 3916 2216 3909 1719 
L 3909 0 
L 2784 0 
L 2784 1825 
Q 2784 2406 2684 2573 
Q 2584 2741 2328 2741 
Q 2006 2741 1831 2477 
Q 1656 2213 1656 1722 
L 1656 0 
L 531 0 
L 531 3500 
L 1656 3500 
L 1656 2988 
Q 1863 3284 2130 3434 
Q 2397 3584 2719 3584 
Q 3081 3584 3359 3409 
Q 3638 3234 3781 2919 
z
" transform="scale(0.015625)"/>
      <path id="DejaVuSans-Bold-46" d="M 588 4666 
L 3834 4666 
L 3834 3756 
L 1791 3756 
L 1791 2888 
L 3713 2888 
L 3713 1978 
L 1791 1978 
L 1791 0 
L 588 0 
L 588 4666 
z
" transform="scale(0.015625)"/>
      <path id="DejaVuSans-Bold-65" d="M 4031 1759 
L 4031 1441 
L 1416 1441 
Q 1456 1047 1700 850 
Q 1944 653 2381 653 
Q 2734 653 3104 758 
Q 3475 863 3866 1075 
L 3866 213 
Q 3469 63 3072 -14 
Q 2675 -91 2278 -91 
Q 1328 -91 801 392 
Q 275 875 275 1747 
Q 275 2603 792 3093 
Q 1309 3584 2216 3584 
Q 3041 3584 3536 3087 
Q 4031 2591 4031 1759 
z
M 2881 2131 
Q 2881 2450 2695 2645 
Q 2509 2841 2209 2841 
Q 1884 2841 1681 2658 
Q 1478 2475 1428 2131 
L 2881 2131 
z
" transform="scale(0.015625)"/>
      <path id="DejaVuSans-Bold-74" d="M 1759 4494 
L 1759 3500 
L 2913 3500 
L 2913 2700 
L 1759 2700 
L 1759 1216 
Q 1759 972 1856 886 
Q 1953 800 2241 800 
L 2816 800 
L 2816 0 
L 1856 0 
Q 1194 0 917 276 
Q 641 553 641 1216 
L 641 2700 
L 84 2700 
L 84 3500 
L 641 3500 
L 641 4494 
L 1759 4494 
z
" transform="scale(0.015625)"/>
     </defs>
     <use xlink:href="#DejaVuSans-Bold-43"/>
     <use xlink:href="#DejaVuSans-Bold-75" transform="translate(73.388672 0)"/>
     <use xlink:href="#DejaVuSans-Bold-72" transform="translate(144.580078 0)"/>
     <use xlink:href="#DejaVuSans-Bold-76" transform="translate(193.896484 0)"/>
     <use xlink:href="#DejaVuSans-Bold-61" transform="translate(259.082031 0)"/>
     <use xlink:href="#DejaVuSans-Bold-20" transform="translate(326.5625 0)"/>
     <use xlink:href="#DejaVuSans-Bold-52" transform="translate(361.376953 0)"/>
     <use xlink:href="#DejaVuSans-Bold-4f" transform="translate(438.378906 0)"/>
     <use xlink:href="#DejaVuSans-Bold-43" transform="translate(523.388672 0)"/>
     <use xlink:href="#DejaVuSans-Bold-20" transform="translate(596.777344 0)"/>
     <use xlink:href="#DejaVuSans-Bold-2d" transform="translate(631.591797 0)"/>
     <use xlink:href="#DejaVuSans-Bold-20" transform="translate(673.095703 0)"/>
     <use xlink:href="#DejaVuSans-Bold-43" transform="translate(707.910156 0)"/>
     <use xlink:href="#DejaVuSans-Bold-41" transform="translate(781.298828 0)"/>
     <use xlink:href="#DejaVuSans-Bold-52" transform="translate(858.691406 0)"/>
     <use xlink:href="#DejaVuSans-Bold-54" transform="translate(931.193359 0)"/>
     <use xlink:href="#DejaVuSans-Bold-20" transform="translate(999.40625 0)"/>
     <use xlink:href="#DejaVuSans-Bold-76" transform="translate(1034.220703 0)"/>
     <use xlink:href="#DejaVuSans-Bold-73" transform="translate(1099.40625 0)"/>
     <use xlink:href="#DejaVuSans-Bold-20" transform="translate(1158.927734 0)"/>
     <use xlink:href="#DejaVuSans-Bold-52" transform="translate(1193.742188 0)"/>
     <use xlink:href="#DejaVuSans-Bold-61" transform="translate(1270.744141 0)"/>
     <use xlink:href="#DejaVuSans-Bold-6e" transform="translate(1338.224609 0)"/>
     <use xlink:href="#DejaVuSans-Bold-64" transform="translate(1409.416016 0)"/>
     <use xlink:href="#DejaVuSans-Bold-6f" transform="translate(1480.998047 0)"/>
     <use xlink:href="#DejaVuSans-Bold-6d" transform="translate(1549.699219 0)"/>
     <use xlink:href="#DejaVuSans-Bold-20" transform="translate(1653.898438 0)"/>
     <use xlink:href="#DejaVuSans-Bold-46" transform="translate(1688.712891 0)"/>
     <use xlink:href="#DejaVuSans-Bold-6f" transform="translate(1753.023438 0)"/>
     <use xlink:href="#DejaVuSans-Bold-72" transform="translate(1821.724609 0)"/>
     <use xlink:href="#DejaVuSans-Bold-65" transform="translate(1871.041016 0)"/>
     <use xlink:href="#DejaVuSans-Bold-73" transform="translate(1938.863281 0)"/>
     <use xlink:href="#DejaVuSans-Bold-74" transform="translate(1998.384766 0)"/>
    </g>
   </g>
   <g id="legend_1">
    <g id="patch_7">
     <path d="M 74.426531 84.958562 
L 204.200922 84.958562 
Q 206.620922 84.958562 206.620922 82.538562 
L 206.620922 48.2275 
Q 206.620922 45.8075 204.200922 45.8075 
L 74.426531 45.8075 
Q 72.006531 45.8075 72.006531 48.2275 
L 72.006531 82.538562 
Q 72.006531 84.958562 74.426531 84.958562 
z
" style="fill: #ffffff; opacity: 0.8; stroke: #cccccc; stroke-linejoin: miter"/>
    </g>
    <g id="line2d_16">
     <path d="M 76.846531 55.606609 
L 88.946531 55.606609 
L 101.046531 55.606609 
" style="fill: none; stroke: #4c72b0; stroke-width: 2; stroke-linecap: round"/>
    </g>
    <g id="text_16">
     <!-- CART -->
     <g style="fill: #262626" transform="translate(110.726531 59.841609) scale(0.121 -0.121)">
      <defs>
       <path id="DejaVuSans-43" d="M 4122 4306 
L 4122 3641 
Q 3803 3938 3442 4084 
Q 3081 4231 2675 4231 
Q 1875 4231 1450 3742 
Q 1025 3253 1025 2328 
Q 1025 1406 1450 917 
Q 1875 428 2675 428 
Q 3081 428 3442 575 
Q 3803 722 4122 1019 
L 4122 359 
Q 3791 134 3420 21 
Q 3050 -91 2638 -91 
Q 1578 -91 968 557 
Q 359 1206 359 2328 
Q 359 3453 968 4101 
Q 1578 4750 2638 4750 
Q 3056 4750 3426 4639 
Q 3797 4528 4122 4306 
z
" transform="scale(0.015625)"/>
       <path id="DejaVuSans-41" d="M 2188 4044 
L 1331 1722 
L 3047 1722 
L 2188 4044 
z
M 1831 4666 
L 2547 4666 
L 4325 0 
L 3669 0 
L 3244 1197 
L 1141 1197 
L 716 0 
L 50 0 
L 1831 4666 
z
" transform="scale(0.015625)"/>
      </defs>
      <use xlink:href="#DejaVuSans-43"/>
      <use xlink:href="#DejaVuSans-41" transform="translate(69.824219 0)"/>
      <use xlink:href="#DejaVuSans-52" transform="translate(138.232422 0)"/>
      <use xlink:href="#DejaVuSans-54" transform="translate(200.464844 0)"/>
     </g>
    </g>
    <g id="line2d_17">
     <path d="M 76.846531 73.367141 
L 88.946531 73.367141 
L 101.046531 73.367141 
" style="fill: none; stroke: #dd8452; stroke-width: 2; stroke-linecap: round"/>
    </g>
    <g id="text_17">
     <!-- Random Forest -->
     <g style="fill: #262626" transform="translate(110.726531 77.602141) scale(0.121 -0.121)">
      <defs>
       <path id="DejaVuSans-6e" d="M 3513 2113 
L 3513 0 
L 2938 0 
L 2938 2094 
Q 2938 2591 2744 2837 
Q 2550 3084 2163 3084 
Q 1697 3084 1428 2787 
Q 1159 2491 1159 1978 
L 1159 0 
L 581 0 
L 581 3500 
L 1159 3500 
L 1159 2956 
Q 1366 3272 1645 3428 
Q 1925 3584 2291 3584 
Q 2894 3584 3203 3211 
Q 3513 2838 3513 2113 
z
" transform="scale(0.015625)"/>
       <path id="DejaVuSans-6d" d="M 3328 2828 
Q 3544 3216 3844 3400 
Q 4144 3584 4550 3584 
Q 5097 3584 5394 3201 
Q 5691 2819 5691 2113 
L 5691 0 
L 5113 0 
L 5113 2094 
Q 5113 2597 4934 2840 
Q 4756 3084 4391 3084 
Q 3944 3084 3684 2787 
Q 3425 2491 3425 1978 
L 3425 0 
L 2847 0 
L 2847 2094 
Q 2847 2600 2669 2842 
Q 2491 3084 2119 3084 
Q 1678 3084 1418 2786 
Q 1159 2488 1159 1978 
L 1159 0 
L 581 0 
L 581 3500 
L 1159 3500 
L 1159 2956 
Q 1356 3278 1631 3431 
Q 1906 3584 2284 3584 
Q 2666 3584 2933 3390 
Q 3200 3197 3328 2828 
z
" transform="scale(0.015625)"/>
      </defs>
      <use xlink:href="#DejaVuSans-52"/>
      <use xlink:href="#DejaVuSans-61" transform="translate(67.232422 0)"/>
      <use xlink:href="#DejaVuSans-6e" transform="translate(128.511719 0)"/>
      <use xlink:href="#DejaVuSans-64" transform="translate(191.890625 0)"/>
      <use xlink:href="#DejaVuSans-6f" transform="translate(255.367188 0)"/>
      <use xlink:href="#DejaVuSans-6d" transform="translate(316.548828 0)"/>
      <use xlink:href="#DejaVuSans-20" transform="translate(413.960938 0)"/>
      <use xlink:href="#DejaVuSans-46" transform="translate(445.748047 0)"/>
      <use xlink:href="#DejaVuSans-6f" transform="translate(499.642578 0)"/>
      <use xlink:href="#DejaVuSans-72" transform="translate(560.824219 0)"/>
      <use xlink:href="#DejaVuSans-65" transform="translate(599.6875 0)"/>
      <use xlink:href="#DejaVuSans-73" transform="translate(661.210938 0)"/>
      <use xlink:href="#DejaVuSans-74" transform="translate(713.310547 0)"/>
     </g>
    </g>
   </g>
  </g>
 </g>
 <defs>
  <clipPath id="p0a2215bbb6">
   <rect x="65.956531" y="39.7575" width="645.948" height="346.548"/>
  </clipPath>
 </defs>
</svg>
